# xmcd
#
# Track frame offsets:
#	150
#	16826
#	30099
#	75604
#	144159
#	167659
#
# Disc length: 2515 seconds
#
# Revision: 1
# Processed by: cddbd v1.5.2PL0 Copyright (c) Steve Scherf et al.
# Submitted via: audiograbber 1.83.01
#
DISCID=3209d106
DTITLE=Grateful Dead - 68-12-21 Shrine Auditorium, Los Angeles CA
DYEAR=1900
DGENRE=
TTITLE0=Alligator
TTITLE1=Drums
TTITLE2=Alligator
TTITLE3=Caution
TTITLE4=Feedback
TTITLE5=We Bid You Goodnight
EXTD=
EXTT0=
EXTT1=
EXTT2=
EXTT3=
EXTT4=
EXTT5=
PLAYORDER=
